<?xml version="1.0" encoding="utf-8"?>
<!-- Generator: Adobe Illustrator 16.0.0, SVG Export Plug-In . SVG Version: 6.00 Build 0)  -->
<!DOCTYPE svg PUBLIC "-//W3C//DTD SVG 1.1//EN" "http://www.w3.org/Graphics/SVG/1.1/DTD/svg11.dtd">
<svg version="1.1" id="Layer_1" xmlns="http://www.w3.org/2000/svg" xmlns:xlink="http://www.w3.org/1999/xlink" x="0px" y="0px"
	 width="350px" height="80px" viewBox="0 0 350 80" enable-background="new 0 0 350 80" xml:space="preserve">
<path fill="#FFFFFF" d="M350,66.364C350,73.348,344.801,80,338.102,80H12.558C5.857,80,0,73.348,0,66.364V12.607
	C0,5.621,5.857,0,12.558,0h325.543C344.801,0,350,5.621,350,12.607V66.364z"/>
<g>
	<g>
		<path fill-rule="evenodd" clip-rule="evenodd" fill="#FCBD20" d="M36.684,71.017c-0.937,0-1.931-0.04-2.955-0.118
			c-1.645-0.125-3.584-0.315-5.492-0.784c-1.621-0.398-3.188-1.026-4.661-1.867c-1.291-0.736-2.542-1.602-3.717-2.57
			c-1.37-1.129-2.456-2.303-3.32-3.589c-0.864-1.284-1.622-2.791-2.251-4.477c-1.631-4.367-2.272-9.143-1.962-14.598
			c0.32-5.627,1.361-10.725,3.183-15.583c1.907-5.088,4.868-11.535,10.889-16.252c2.765-2.167,6.001-3.312,9.357-3.312
			c2.652,0,5.319,0.731,7.715,2.114c4.234,2.445,7.607,6.143,10.309,11.306c5.409,10.332,7.394,20.868,5.901,31.315
			c-0.796,5.571-3.081,9.788-6.987,12.891c-0.855,0.679-1.736,1.299-2.619,1.843c-0.505,0.313-1.046,0.618-1.606,0.906
			c-1.958,1.008-3.996,1.747-6.056,2.198c-1.033,0.226-2.098,0.385-3.166,0.474c-0.334,0.027-0.667,0.049-0.999,0.065
			C37.726,71.004,37.205,71.017,36.684,71.017z"/>
		<g>
			<path fill="#231F20" d="M35.756,9.815c2.314,0,4.624,0.631,6.74,1.853c4.276,2.469,7.302,6.214,9.557,10.521
				c4.947,9.45,7.224,19.457,5.698,30.136c-0.659,4.616-2.493,8.64-6.27,11.64c-0.774,0.614-1.589,1.192-2.43,1.711
				c-0.479,0.297-0.972,0.573-1.474,0.831c-1.762,0.906-3.646,1.604-5.582,2.027c-0.956,0.209-1.936,0.354-2.911,0.436
				c-0.311,0.025-0.623,0.046-0.935,0.062c-0.488,0.023-0.978,0.035-1.467,0.035c-0.937,0-1.874-0.041-2.806-0.112
				c-1.737-0.132-3.481-0.317-5.176-0.733c-1.461-0.359-2.852-0.921-4.159-1.667c-1.211-0.691-2.368-1.495-3.444-2.382
				c-1.119-0.922-2.131-1.966-2.942-3.172c-0.839-1.248-1.517-2.662-2.043-4.071c-1.666-4.462-2.111-9.066-1.842-13.805
				c0.294-5.166,1.25-10.175,3.063-15.01c2.22-5.924,5.126-11.376,10.266-15.402C30.097,10.757,32.929,9.815,35.756,9.815
				 M35.756,5.917c-3.796,0-7.448,1.289-10.56,3.727c-6.403,5.016-9.516,11.775-11.512,17.103
				c-1.892,5.044-2.972,10.33-3.304,16.155c-0.326,5.73,0.355,10.765,2.082,15.391c0.683,1.829,1.511,3.472,2.46,4.884
				c0.971,1.443,2.18,2.754,3.698,4.004c1.261,1.04,2.604,1.968,3.991,2.76c1.628,0.93,3.365,1.625,5.16,2.066
				c2.048,0.503,4.087,0.704,5.812,0.835c1.071,0.082,2.115,0.123,3.101,0.123c0.56,0,1.117-0.013,1.656-0.039
				c0.358-0.018,0.711-0.041,1.063-0.07c1.16-0.096,2.311-0.269,3.426-0.512c2.226-0.487,4.423-1.285,6.532-2.369
				c0.604-0.312,1.191-0.643,1.743-0.983c0.942-0.581,1.886-1.246,2.801-1.972c4.256-3.381,6.848-8.139,7.705-14.143
				c1.552-10.861-0.501-21.794-6.103-32.495c-2.879-5.5-6.498-9.454-11.062-12.089C41.754,6.739,38.749,5.917,35.756,5.917
				L35.756,5.917z"/>
		</g>
	</g>
	<g>
		<path fill-rule="evenodd" clip-rule="evenodd" d="M27.554,47.417c-1.783-1.429-3.452-2.757-5.113-4.097
			c-0.912-0.734-1.57-4.198-0.888-5.12c0.173-0.234,0.908-0.354,1.157-0.186c3.435,2.315,6.852,4.659,10.223,7.067
			c1.122,0.803,1.016,3.921-0.153,4.769c-3.237,2.348-6.512,4.644-9.798,6.924c-0.942,0.652-1.504,0.341-1.57-0.814
			c-0.049-0.856-0.112-1.733,0.023-2.57c0.095-0.586,0.383-1.271,0.815-1.649C23.925,50.276,25.693,48.918,27.554,47.417z"/>
		<path fill-rule="evenodd" clip-rule="evenodd" d="M40.739,59.654c-2.145,0-4.291-0.046-6.433,0.017
			c-1.385,0.04-1.53-0.777-1.546-1.838c-0.016-1.071,0.156-1.898,1.505-1.893c4.289,0.017,8.578,0.025,12.866-0.006
			c1.359-0.01,1.532,0.779,1.525,1.857c-0.007,1.045-0.08,1.907-1.485,1.875C45.028,59.618,42.883,59.654,40.739,59.654z"/>
	</g>
	
		<path fill-rule="evenodd" clip-rule="evenodd" fill="none" stroke="#FFFFFF" stroke-width="4" stroke-linecap="round" stroke-miterlimit="10" d="
		M27.387,19.77c-1.688,2.106-2.859,4.548-3.827,7.128c-0.417,1.113-0.763,2.24-1.044,3.381"/>
	
		<path fill-rule="evenodd" clip-rule="evenodd" fill="none" stroke="#FFFFFF" stroke-width="4" stroke-linecap="round" stroke-miterlimit="10" d="
		M32.508,15.713c-0.161,0.06-0.321,0.124-0.48,0.194"/>
	<text transform="matrix(1 0 0 1 69.7031 59.6719)" fill="#231F20" font-family="'FiraCode-Medium'" font-size="40">Tamagoshell</text>
</g>
</svg>
